<?xml version="1.0" standalone="no"?>
<!DOCTYPE svg PUBLIC "-//W3C//DTD SVG 20010904//EN"
 "http://www.w3.org/TR/2001/REC-SVG-20010904/DTD/svg10.dtd">
<svg version="1.0" xmlns="http://www.w3.org/2000/svg"
 width="484.000000pt" height="505.000000pt" viewBox="0 0 484.000000 505.000000"
 preserveAspectRatio="xMidYMid meet">

<g transform="translate(0.000000,505.000000) scale(0.100000,-0.100000)"
fill="#000000" stroke="none">
<path d="M2083 4686 c-357 -68 -648 -326 -756 -671 -185 -590 220 -1201 838
-1264 692 -71 1235 597 1028 1264 -98 317 -365 571 -688 656 -103 27 -319 35
-422 15z m322 -121 c216 -38 403 -152 536 -328 195 -258 228 -588 90 -882
-113 -239 -337 -415 -602 -470 -88 -19 -253 -19 -339 -1 -398 85 -681 431
-683 836 -3 531 475 936 998 845z"/>
<path d="M2140 2533 c-30 -2 -102 -10 -160 -19 -681 -101 -1252 -566 -1493
-1214 -58 -155 -107 -376 -107 -480 0 -89 -200 -80 1882 -80 1829 0 1845 0
1863 20 15 17 17 31 12 92 -24 315 -175 686 -392 963 -69 88 -230 251 -312
314 -298 233 -657 372 -1035 401 -120 9 -146 10 -258 3z m465 -153 c675 -145
1203 -649 1370 -1308 13 -54 27 -124 31 -155 l7 -57 -1752 0 -1751 0 0 28 c1
91 79 356 148 502 256 537 753 909 1341 1005 133 22 476 13 606 -15z"/>
</g>
</svg>
