<?xml version="1.0" standalone="no"?>
<!DOCTYPE svg PUBLIC "-//W3C//DTD SVG 20010904//EN"
 "http://www.w3.org/TR/2001/REC-SVG-20010904/DTD/svg10.dtd">
<svg version="1.0" xmlns="http://www.w3.org/2000/svg"
 width="4288.000000pt" height="3880.000000pt" viewBox="0 0 4288.000000 3880.000000"
 preserveAspectRatio="xMidYMid meet">

<g transform="translate(0.000000,3880.000000) scale(0.100000,-0.100000)"
fill="#000000" stroke="none">
<path d="M1025 34780 c-93 -9 -147 -25 -225 -66 -134 -70 -243 -200 -291 -345
-19 -60 -24 -94 -24 -184 0 -136 26 -225 97 -332 81 -120 198 -205 343 -249
57 -18 205 -19 3435 -21 l3375 -2 22 -68 c12 -37 128 -466 258 -953 265 -992
252 -941 845 -3155 237 -885 498 -1860 580 -2165 157 -586 742 -2769 1305
-4870 185 -690 453 -1691 596 -2225 143 -533 336 -1253 429 -1600 93 -346 379
-1413 635 -2370 256 -957 476 -1762 489 -1790 69 -149 199 -260 376 -321 54
-19 291 -19 10690 -19 10401 0 10636 0 10690 19 177 61 310 175 376 323 13 29
109 371 213 760 104 390 375 1399 601 2243 226 844 478 1785 560 2090 201 750
892 3330 1305 4870 185 690 471 1757 635 2370 164 613 351 1311 415 1550 130
484 139 536 111 664 -27 118 -77 208 -165 297 -75 76 -130 110 -241 153 l-55
21 -14152 3 -14152 2 -15 53 c-9 28 -49 178 -90 332 -41 154 -241 901 -445
1660 -203 759 -458 1711 -566 2115 -107 404 -205 766 -217 804 -56 180 -216
332 -414 392 -56 18 -217 19 -3659 20 -1980 1 -3631 -2 -3670 -6z m36465
-6602 c-5 -18 -311 -1158 -679 -2533 -368 -1375 -854 -3188 -1080 -4030 -225
-841 -527 -1969 -671 -2505 -143 -536 -373 -1393 -510 -1905 -137 -511 -312
-1162 -388 -1445 l-138 -515 -10059 -3 c-5532 -1 -10062 1 -10066 5 -4 5 -237
868 -519 1918 -848 3166 -2828 10555 -2925 10917 -13 47 -26 96 -30 107 l-6
21 13540 0 13539 0 -8 -32z"/>
<path d="M18048 11379 c-603 -41 -1202 -242 -1708 -575 -808 -530 -1368 -1366
-1549 -2314 -47 -247 -55 -343 -55 -660 -1 -319 8 -431 55 -680 108 -566 356
-1102 725 -1565 110 -138 397 -426 529 -531 455 -364 983 -616 1515 -723 249
-50 367 -63 653 -68 302 -6 433 2 674 43 1489 248 2674 1431 2922 2916 38 228
45 320 46 598 0 349 -26 564 -105 881 -220 881 -787 1655 -1578 2151 -617 388
-1380 578 -2124 527z m597 -1218 c387 -58 743 -206 1060 -441 504 -374 834
-925 932 -1560 25 -161 25 -520 0 -679 -80 -506 -298 -948 -646 -1304 -208
-213 -396 -350 -656 -478 -341 -167 -654 -239 -1038 -239 -274 0 -480 31 -717
106 -858 272 -1477 994 -1626 1899 -26 156 -27 554 -1 710 112 677 471 1240
1032 1617 321 215 704 350 1100 387 140 14 406 5 560 -18z"/>
<path d="M31245 11383 c-192 -9 -482 -52 -669 -99 -645 -161 -1207 -481 -1676
-953 -584 -588 -946 -1364 -1020 -2189 -19 -200 -8 -638 20 -817 28 -185 63
-351 106 -499 365 -1258 1414 -2230 2694 -2496 232 -48 366 -62 647 -67 176
-4 320 -1 405 7 1639 148 2970 1406 3207 3030 89 605 22 1215 -195 1794 -62
165 -206 455 -301 606 -564 899 -1476 1498 -2514 1649 -228 34 -471 46 -704
34z m375 -1203 c586 -51 1091 -289 1502 -708 342 -349 560 -774 642 -1253 132
-767 -131 -1562 -693 -2102 -383 -367 -855 -588 -1380 -648 -152 -17 -515 -6
-656 19 -726 132 -1315 551 -1674 1189 -139 247 -236 545 -277 843 -19 143
-18 457 2 612 80 619 422 1205 925 1579 149 112 235 164 399 243 380 183 801
261 1210 226z"/>
</g>
</svg>
