<?xml version="1.0" standalone="no"?>
<!DOCTYPE svg PUBLIC "-//W3C//DTD SVG 20010904//EN"
 "http://www.w3.org/TR/2001/REC-SVG-20010904/DTD/svg10.dtd">
<svg version="1.0" xmlns="http://www.w3.org/2000/svg"
 width="512.000000pt" height="512.000000pt" viewBox="0 0 512.000000 512.000000"
 preserveAspectRatio="xMidYMid meet">

<g transform="translate(0.000000,512.000000) scale(0.100000,-0.100000)"
fill="#000000" stroke="none">
<path d="M2331 5109 c-790 -70 -1508 -513 -1945 -1199 -63 -99 -185 -349 -231
-475 -51 -138 -100 -336 -126 -506 -32 -205 -32 -533 0 -738 43 -283 111 -499
236 -756 122 -250 261 -448 459 -652 597 -618 1457 -894 2297 -739 847 157
1564 732 1893 1519 138 329 200 637 200 997 0 360 -62 668 -200 997 -425 1016
-1480 1650 -2583 1552z m450 -279 c416 -41 817 -198 1158 -453 123 -92 346
-315 438 -438 514 -687 608 -1594 246 -2351 -123 -255 -252 -437 -453 -638
-261 -262 -547 -439 -890 -553 -1081 -360 -2257 131 -2765 1155 -440 888 -253
1958 465 2652 361 348 846 574 1340 625 122 12 341 13 461 1z"/>
<path d="M2485 4340 c-16 -11 -38 -34 -47 -52 -17 -30 -18 -93 -18 -893 0
-799 1 -862 18 -894 9 -19 30 -44 45 -55 28 -21 38 -21 720 -24 677 -2 693 -2
725 18 94 58 94 183 0 240 -32 19 -52 20 -630 20 l-598 0 0 772 c0 748 -1 773
-20 813 -11 22 -33 48 -49 58 -39 23 -108 22 -146 -3z"/>
</g>
</svg>
