<?xml version="1.0" standalone="no"?>
<!DOCTYPE svg PUBLIC "-//W3C//DTD SVG 20010904//EN"
 "http://www.w3.org/TR/2001/REC-SVG-20010904/DTD/svg10.dtd">
<svg version="1.0" xmlns="http://www.w3.org/2000/svg"
 width="5120.000000pt" height="5120.000000pt" viewBox="0 0 5120.000000 5120.000000"
 preserveAspectRatio="xMidYMid meet">

<g transform="translate(0.000000,5120.000000) scale(0.100000,-0.100000)"
fill="#000000" stroke="none">
<path d="M15515 45389 c-3428 -161 -6541 -2040 -8302 -5009 -927 -1564 -1413
-3355 -1413 -5205 1 -3008 932 -6217 2793 -9630 1867 -3423 4672 -7113 8827
-11610 1005 -1088 2327 -2475 3430 -3600 1081 -1102 1521 -1546 2852 -2880
1213 -1216 1540 -1539 1590 -1568 100 -59 185 -82 308 -82 123 0 208 23 308
82 91 54 3015 2985 4642 4653 4598 4716 7605 8215 9885 11505 2386 3444 3908
6655 4565 9630 340 1539 470 3106 364 4375 -239 2869 -1674 5490 -3969 7251
-1782 1368 -3950 2099 -6220 2099 -1381 0 -2629 -204 -3710 -605 -670 -249
-1307 -583 -1885 -989 -1253 -880 -2347 -2137 -3427 -3941 -173 -288 -494
-852 -548 -960 -3 -7 -7 -7 -10 0 -3 6 -66 121 -141 255 -997 1794 -1980 3090
-3064 4040 -1500 1314 -3224 2004 -5405 2165 -453 33 -1061 43 -1470 24z m990
-1199 c2050 -87 3617 -645 4955 -1766 1231 -1031 2362 -2614 3525 -4934 113
-225 121 -238 194 -310 87 -87 165 -131 277 -160 98 -25 190 -25 288 0 113 29
190 73 277 160 74 74 77 79 261 440 778 1532 1532 2725 2297 3635 1396 1658
2941 2536 4991 2834 856 125 1859 144 2670 51 3023 -347 5683 -2225 7034
-4965 455 -922 751 -1925 866 -2938 107 -936 66 -2092 -116 -3267 -498 -3230
-2072 -6697 -4789 -10555 -1868 -2652 -4266 -5499 -7565 -8980 -1332 -1406
-2627 -2730 -5115 -5230 l-955 -960 -955 960 c-2746 2759 -4129 4178 -5606
5750 -3797 4042 -6454 7346 -8364 10400 -2152 3440 -3345 6593 -3615 9550 -43
472 -53 713 -54 1235 0 527 8 697 54 1099 376 3291 2564 6128 5665 7345 913
358 1927 570 2905 609 192 8 658 6 875 -3z"/>
</g>
</svg>
