<?xml version="1.0" encoding="UTF-8"?>
<svg width="360px" height="180px" viewBox="0 0 360 180" version="1.1" xmlns="http://www.w3.org/2000/svg" xmlns:xlink="http://www.w3.org/1999/xlink">
    <title>GL_HPBrand_ray-ban</title>
    <g id="GL_HPBrand_ray-ban" stroke="none" stroke-width="1" fill="none" fill-rule="evenodd">
        <g id="Group" transform="translate(99.500000, 48.500000)" fill="#1A1919">
            <path d="M78.2389796,45.8079492 C79.0849362,45.8079492 78.9892678,46.597443 78.9742089,47.2697464 C78.9027765,49.8624935 78.8108742,56.2575637 78.732629,62.8410512 L78.7215477,63.782441 C78.6410201,70.6896419 78.5772647,77.6147613 78.5695194,80.4026464 L78.5695749,81.3018125 C78.5707012,81.5175784 78.5729686,81.6458761 78.5764764,81.6761694 C78.6349404,82.1810577 78.3497069,82.5758047 77.8997112,82.5758047 C77.4497155,82.5758047 74.9623375,82.6348405 74.5141134,82.6348405 C74.0641176,82.6348405 73.7779983,82.129071 73.7779983,81.6761694 L74.0641176,59.0011312 C74.0641176,57.7111547 73.291684,57.947298 72.7672795,58.7218126 C71.1843221,61.0735525 70.175375,62.5952666 68.5348393,62.5952666 C65.7622278,62.5952666 66.9589684,59.0584048 65.7675427,59.0584048 C64.5770028,59.0584048 62.7734766,64.8950199 59.4463428,64.8950199 C56.2299363,64.8950199 57.0174288,61.2991222 55.8915537,61.2991222 C54.5947156,61.2991222 52.0550743,67.6467936 47.8226341,67.6467936 C46.5780593,67.6467936 44.9180356,67.1683392 44.9180356,64.1945203 C44.9180356,59.8161779 48.9812845,53.3328123 52.7894177,53.3328123 C53.4670688,53.3328123 53.8913758,53.5011084 54.6522938,53.5011084 C55.5824031,53.5011084 56.0917486,51.5643813 57.5312035,51.5643813 C58.7996954,51.5643813 60.0114949,51.9855622 60.0114949,55.1012432 C60.0114949,56.6167894 61.2286094,59.0584048 62.186179,59.0584048 C64.3023991,59.0584048 65.6621303,53.1134105 66.6728491,50.3008388 C66.9315081,49.5756675 67.687997,48.8698812 68.2814953,48.8698812 C69.4135712,48.8698812 69.9477196,49.7342712 70.0584469,50.6902989 C70.1709459,51.64897 70.3348223,55.9691577 71.4668982,55.9691577 C72.3897125,55.9691577 73.2545601,54.1704078 74.0482787,52.3286916 L74.2537135,51.8484236 C74.5594196,51.1300231 74.8540592,50.4284214 75.1368437,49.8488183 C76.2060265,47.6600876 77.3912514,45.8079492 78.2389796,45.8079492 Z M42.4634329,19.4859078 C52.2818438,19.4859078 55.6692133,26.0520997 55.6692133,30.7670344 C55.6692133,39.6074268 49.1504758,47.5235123 36.4522694,57.1225589 C35.8991644,57.5921432 35.8622908,58.4309256 35.8598325,58.7469972 L35.8596569,63.2684511 C35.8596569,64.279109 36.3698883,64.8685859 37.2999976,65.2906479 L57.0236296,74.5495778 C58.9697725,75.4782904 58.7996954,76.7400707 58.4621986,77.4132552 C58.123816,78.0864396 57.8111221,79.0222013 57.362898,79.4336897 C56.3459785,80.3597589 55.4991361,80.6108814 53.8063372,79.9394592 L37.4691889,72.1934321 C36.537308,71.6039552 35.8596569,72.025136 35.77639,72.782028 L35.9455813,76.9092479 C35.9455813,77.9172624 35.6063129,79.0151522 34.5070123,79.6865744 C33.4050542,80.3597589 32.1347907,81.2030018 31.4589113,81.5404751 C30.782146,81.8779485 30.104495,82.0444824 30.104495,80.8672907 L30.1040422,80.6905949 C30.1009189,79.9437081 30.0821228,77.8880449 30.0628673,75.7825304 L30.0573663,75.1806858 C30.0390758,73.1772656 30.0216828,71.2373794 30.0183292,70.4485339 L30.0181069,70.1220515 C30.0182463,70.107805 30.0184273,70.0969799 30.0186517,70.0897121 L30.0194564,70.0787165 C30.0194564,70.0787165 30.0263529,70.251589 30.0279756,69.7111808 L30.0283146,69.4548754 L30.0283146,69.4548754 C30.0283146,68.6054646 29.2585384,68.319978 29.2585384,68.319978 L21.8088059,64.8685859 C20.5385423,64.279109 20.7077336,63.6905131 21.8088059,63.0138041 L29.0884613,58.4689278 C29.9361895,57.9640395 30.0203422,57.2899739 30.0203422,56.3647858 L29.9361895,32.6209351 C29.9361895,31.8622809 30.0203422,31.3565114 30.6962216,30.9353305 L33.5760172,29.0840732 C34.7612422,28.4937151 35.8596569,28.4937151 35.8596569,29.9255538 L35.8596569,51.5643813 C35.8596569,52.5759203 36.3530578,53.3389802 37.6374944,52.3221544 C44.5787672,46.8494467 51.3517345,41.1256164 51.3517345,32.3671692 C51.3517345,27.3156423 48.1344422,24.1999613 43.6486579,24.1999613 C32.7291748,24.1999613 14.555725,36.5613552 7.84210758,41.1256164 C6.32381488,42.154778 2.67778645,45.250193 2.00102121,45.9233774 C1.32425597,46.597443 0.646604918,46.8494467 0.646604918,45.5030777 C0.646604918,44.1558276 0.731643482,42.3028081 0.731643482,40.7872619 C0.731643482,39.2725968 1.28173669,36.1727762 3.44047607,34.8087846 C18.5073608,25.2943266 32.6441362,19.4859078 42.4634329,19.4859078 Z M113.736379,0.00320905919 C118.595979,0.00320905919 121.127648,3.92864991 121.127648,8.2550056 C121.127648,13.028095 119.494199,16.8381076 113.905571,22.0059439 C108.3196,27.172899 106.96607,27.3367895 106.96607,28.7994678 C106.96607,30.2039914 108.766052,31.1045078 109.728051,31.7776923 C110.689164,32.4508767 114.468065,35.0352354 116.330056,36.6618042 C118.19116,38.2874918 118.75897,39.4091722 118.75897,40.981992 C118.75897,43.6808978 117.577288,45.1805836 116.445212,46.8758806 C114.637257,49.5756675 107.918324,56.359499 104.478692,62.8737042 C103.684112,64.1619185 103.044552,64.1469392 102.504202,63.4376284 C101.53246,62.1643933 100.753825,61.1845751 100.473021,60.2902266 C100.194874,59.394997 99.6810992,57.9314376 100.58552,56.5330819 C101.056279,55.8045624 103.006107,53.3288972 105.086218,50.7175775 L105.567942,50.1132907 C107.338242,47.8941218 109.127537,45.6665805 110.118697,44.4069501 C112.0923,41.9027744 112.039151,38.3456465 110.574008,36.9402417 C109.107978,35.534837 105.760471,32.566305 104.763925,31.3838265 C103.917968,30.3722875 103.298781,28.2522851 104.763925,26.5569881 C109.388783,21.2217368 114.355566,15.2168256 114.355566,9.26478231 C114.355566,5.89797883 112.149879,3.59734447 110.403931,3.59734447 C106.179463,3.59734447 102.504202,11.4543941 102.336783,18.5853914 L103.125161,46.4291469 L103.125212,46.9081584 C103.122343,48.6720185 103.046748,49.646863 101.605097,51.3167834 C100.108064,53.0490879 98.6119164,53.612131 97.7641882,53.612131 C97.3159641,53.612131 97.0307306,53.2746576 97.0307306,52.7124957 C97.0307306,51.7599925 97.258386,49.0073377 97.258386,47.4926727 L96.9182317,21.9521948 C96.9182317,15.333135 98.9192954,10.9459812 100.908843,8.08406609 C102.876246,5.25827735 107.42138,0.00320905919 113.736379,0.00320905919 Z M54.3670603,56.0264313 C52.8966017,56.0264313 49.7430883,61.1317072 49.7430883,62.8155495 C49.7430883,63.5988754 50.1346201,63.8253262 50.5899307,63.8253262 C51.8911979,63.8253262 55.2139026,58.61079 55.2139026,57.0961249 C55.2139026,56.5277951 54.8746342,56.0264313 54.3670603,56.0264313 Z M89.0202751,43.5073149 C91.1099206,43.5073149 92.5183718,44.801697 92.5183718,46.2608508 C92.5183718,48.2812853 90.4260688,51.2533419 86.421284,51.2533419 C83.4272179,51.2533419 82.9834228,49.3430488 82.9834228,48.5024494 C82.9834228,46.9869032 85.1802524,43.5073149 89.0202751,43.5073149 Z M152.169381,24.5365536 C153.62921,24.5365536 154.082749,25.9366715 154.59298,27.8469646 C155.099668,29.7572577 155.95094,33.6826986 158.092849,33.6826986 C158.771386,33.6826986 159.956611,32.6209351 160.461527,33.1258235 C160.928353,33.5875364 159.733384,35.2511127 158.771386,36.3780798 C157.809387,37.5041659 156.738432,38.5668105 155.215711,38.5668105 C153.689446,38.5668105 152.575972,37.9887882 151.828341,36.1569158 C151.651937,35.7221404 151.497804,35.1963746 151.346626,34.6671049 L151.233495,34.2708625 C150.893952,33.0883664 150.544917,31.9988563 149.966351,31.9988563 C149.174429,31.9988563 148.662426,33.2888328 147.703971,35.3665409 C146.745515,37.4451301 144.834805,41.3194653 142.855887,41.3194653 C141.549305,41.3194653 141.276473,40.3079264 141.276473,38.6249652 C141.276473,37.9508996 140.804331,37.2724283 140.031898,38.6831199 C139.953302,38.82597 139.875115,38.9702538 139.797026,39.115273 L139.562733,39.5518377 C138.428692,41.6658099 137.249086,43.7875147 135.068657,43.7875147 C132.924977,43.7875147 132.153429,42.0552101 131.793787,40.7555412 C131.62371,40.1413925 131.175486,39.6303362 130.667026,40.4189489 C130.158566,41.2084428 127.620697,44.5179727 126.4337,45.5286305 C125.248475,46.5384072 124.286476,47.3217331 122.761983,47.3217331 C121.240147,47.3217331 120.509347,46.2026961 120.509347,43.9020618 C120.509347,39.4664458 124.916293,31.7204187 129.710342,31.7204187 C130.388879,31.7204187 131.175486,31.5521226 131.62371,31.0463531 C132.073706,30.543227 132.476753,29.9255538 133.376744,29.9255538 C134.894151,29.9255538 135.228105,31.3300775 135.407926,32.5046258 C135.687845,34.3576453 135.919929,37.4451301 137.26903,37.4451301 C138.286836,37.4451301 138.639391,36.4838156 139.191256,35.1506637 C139.697058,33.9197229 141.665347,29.6427106 142.402348,28.2945794 C143.135805,26.9464482 143.977333,26.6116182 144.601835,26.6116182 C145.226337,26.6116182 146.125442,27.2319348 146.125442,28.0734154 C146.125442,28.914896 146.243256,30.8789381 146.243256,30.8789381 C146.243256,31.8878337 147.056438,32.0719902 147.711943,30.4833101 C148.501207,28.573017 150.084165,24.5365536 152.169381,24.5365536 Z M130.158566,34.9198072 C128.693423,34.9198072 125.589515,39.2990308 125.589515,40.8136958 C125.589515,41.3767389 125.927012,41.9344951 126.4337,41.9344951 C127.958193,41.9344951 130.835331,36.7772324 130.835331,35.6529086 C130.835331,35.2608051 130.661711,34.9198072 130.158566,34.9198072 Z M158.129167,22.8747395 C159.085851,22.8747395 159.864485,23.6510164 159.864485,24.6017573 C159.864485,25.5524982 159.085851,26.3296562 158.129167,26.3296562 C157.170712,26.3296562 156.392077,25.5524982 156.392077,24.6017573 C156.392077,23.6510164 157.170712,22.8747395 158.129167,22.8747395 Z M158.129167,23.2571506 C157.432028,23.2571506 156.892565,23.8078578 156.892565,24.6017573 C156.892565,25.4009436 157.432028,25.946364 158.129167,25.946364 C158.815676,25.946364 159.364884,25.4009436 159.364884,24.6017573 C159.364884,23.8078578 158.815676,23.2571506 158.129167,23.2571506 Z M158.156628,23.635156 C158.646485,23.635156 158.928175,23.7787805 158.928175,24.2096538 C158.928175,24.5585818 158.715579,24.6978006 158.417944,24.7198289 L158.417944,24.7198289 L158.928175,25.5524982 L158.502983,25.5524982 L158.041471,24.7400949 L157.845705,24.7400949 L157.845705,25.5524982 L157.432028,25.5524982 L157.432028,23.635156 Z M158.139797,23.9514822 L157.845705,23.9514822 L157.845705,24.4246499 L158.18143,24.4246499 C158.378082,24.4246499 158.511841,24.3911669 158.511841,24.1700028 C158.511841,23.9743917 158.301902,23.9514822 158.139797,23.9514822 L158.139797,23.9514822 Z" id="ray-ban"></path>
        </g>
    </g>
</svg>