<?xml version="1.0" standalone="no"?>
<!DOCTYPE svg PUBLIC "-//W3C//DTD SVG 20010904//EN"
 "http://www.w3.org/TR/2001/REC-SVG-20010904/DTD/svg10.dtd">
<svg version="1.0" xmlns="http://www.w3.org/2000/svg"
 width="600.000000pt" height="360.000000pt" viewBox="0 0 600.000000 360.000000"
 preserveAspectRatio="xMidYMid meet">

<g transform="translate(0.000000,360.000000) scale(0.100000,-0.100000)"
fill="#000000" stroke="none">
<path d="M2865 2839 c-357 -49 -661 -273 -815 -601 -41 -88 -80 -214 -80 -259
0 -22 4 -26 19 -22 14 4 23 22 35 74 37 166 121 321 246 452 132 140 273 227
457 284 82 25 100 27 273 27 173 0 191 -2 274 -28 275 -84 498 -268 621 -514
43 -85 68 -157 85 -235 8 -40 16 -56 30 -60 11 -3 22 -2 24 1 11 19 -50 208
-99 307 -118 239 -316 418 -565 514 -145 56 -353 81 -505 60z"/>
<path d="M2898 2743 c-2 -5 -2 -45 0 -91 l4 -83 56 5 c31 3 60 5 65 5 4 1 7 8
7 15 0 11 -14 16 -47 18 -35 2 -48 7 -48 18 0 10 13 16 43 18 57 4 58 30 0 34
-44 3 -67 28 -26 28 39 0 68 12 68 26 0 10 -15 14 -59 14 -33 0 -61 -3 -63 -7z"/>
<path d="M3095 2716 c-21 -31 -10 -53 36 -77 41 -21 48 -33 24 -43 -21 -8 -45
3 -45 20 0 8 -9 14 -20 14 -28 0 -26 -35 2 -54 35 -25 85 -21 104 9 22 34 10
62 -37 86 -22 11 -37 24 -34 29 9 15 19 12 45 -10 29 -25 40 -25 40 -1 0 48
-88 69 -115 27z"/>
<path d="M2723 2708 c-28 -14 -37 -41 -23 -68 8 -15 21 -20 55 -20 49 0 67
-16 40 -36 -16 -12 -22 -12 -40 0 -13 9 -27 11 -35 6 -22 -14 16 -50 52 -50
30 0 78 38 78 63 0 29 -26 48 -69 50 -25 1 -46 7 -48 13 -5 16 27 27 42 14 13
-10 45 -4 45 9 0 28 -55 39 -97 19z"/>
<path d="M3362 2648 c-20 -20 -13 -60 15 -90 20 -21 24 -31 16 -39 -14 -14
-32 -3 -43 27 -12 32 -40 32 -40 0 0 -47 86 -86 118 -54 21 21 13 61 -20 95
-30 31 -31 33 -10 33 13 0 26 -8 29 -17 14 -38 43 -43 43 -9 0 46 -77 85 -108
54z"/>
<path d="M2535 2625 c-30 -29 -31 -46 -6 -69 15 -14 29 -16 66 -10 42 6 47 5
43 -12 -3 -15 -12 -19 -42 -19 -47 0 -58 -20 -22 -37 22 -9 33 -8 61 5 43 21
56 59 29 88 -16 18 -26 20 -66 15 -30 -4 -48 -3 -48 3 0 15 38 33 45 21 8 -12
35 -1 35 15 0 32 -63 33 -95 0z"/>
<path d="M3540 2550 c-8 -10 -33 -39 -54 -65 -29 -34 -36 -49 -28 -57 9 -9 19
-5 40 15 l28 27 22 -23 22 -23 -25 -24 c-22 -21 -23 -26 -11 -38 12 -12 20 -7
57 33 64 69 73 85 60 98 -8 8 -18 4 -36 -13 l-25 -24 -22 22 -22 22 22 23 c17
18 19 26 10 35 -16 16 -20 15 -38 -8z"/>
<path d="M2379 2514 c-10 -13 -8 -30 15 -100 24 -73 30 -83 42 -73 10 8 13 21
10 35 -7 28 23 49 68 49 54 0 39 23 -42 64 -71 36 -82 38 -93 25z m61 -54 c11
-7 12 -12 3 -21 -8 -8 -14 -6 -22 10 -12 22 -5 27 19 11z"/>
<path d="M2875 2515 c-157 -29 -288 -99 -396 -213 -73 -76 -118 -143 -148
-219 l-21 -53 23 0 c17 0 29 14 54 68 83 176 264 322 453 366 36 9 108 16 160
16 52 0 124 -7 160 -16 189 -44 370 -190 453 -366 25 -54 37 -68 54 -68 l23 0
-20 51 c-67 169 -230 328 -405 395 -134 51 -260 63 -390 39z"/>
<path d="M3641 2364 c-40 -33 -43 -83 -6 -119 63 -64 179 12 145 95 -23 56
-88 67 -139 24z m93 -20 c34 -33 3 -84 -51 -84 -47 0 -48 60 -2 86 31 17 34
17 53 -2z"/>
<path d="M2217 2333 c-4 -3 -7 -10 -7 -14 0 -7 123 -99 133 -99 2 0 18 21 37
46 24 34 29 49 21 57 -8 8 -18 3 -39 -21 l-27 -33 -49 36 c-52 37 -58 39 -69
28z"/>
<path d="M2141 2204 c-36 -46 -24 -102 29 -129 43 -22 68 -19 101 14 41 42 41
94 -1 116 -38 19 -35 20 -50 -16 -16 -38 1 -65 23 -34 21 28 32 0 13 -30 -19
-29 -42 -32 -74 -9 -30 20 -28 58 3 78 32 21 32 36 1 36 -15 0 -33 -11 -45
-26z"/>
<path d="M3763 2188 c-63 -28 -71 -34 -62 -50 8 -14 14 -16 29 -8 28 15 38 12
45 -10 10 -32 48 -52 77 -41 14 5 28 17 32 27 8 21 -24 114 -38 113 -6 0 -43
-15 -83 -31z m82 -38 c7 -21 0 -40 -15 -40 -13 0 -32 39 -25 50 10 17 33 11
40 -10z"/>
<path d="M2348 1989 c-68 -7 -371 -74 -390 -86 -18 -10 -6 -56 21 -81 40 -38
48 -56 65 -157 45 -259 204 -394 450 -383 198 9 327 115 396 326 34 107 36
129 14 160 -28 40 -5 52 96 52 101 0 124 -12 96 -52 -21 -29 -20 -47 5 -131
49 -166 123 -262 246 -320 57 -26 83 -32 159 -35 244 -11 406 126 450 380 19
111 21 116 60 155 32 31 45 75 27 86 -5 3 -76 21 -159 41 -289 69 -460 69
-635 1 -88 -35 -90 -35 -249 -35 -159 0 -161 0 -249 35 -128 50 -238 62 -403
44z m327 -68 c71 -25 122 -64 153 -117 20 -34 22 -49 19 -119 -6 -122 -65
-231 -163 -301 -101 -72 -275 -85 -389 -29 -33 16 -64 31 -70 34 -5 2 -3 -4 5
-15 8 -10 0 -6 -18 10 -17 16 -29 32 -27 36 3 4 -4 19 -15 33 -47 59 -64 117
-64 217 -1 87 2 100 28 147 56 102 147 135 356 129 96 -2 139 -8 185 -25z
m1019 14 c87 -18 135 -52 172 -118 25 -46 29 -62 29 -137 0 -94 -19 -165 -60
-220 -13 -18 -22 -36 -20 -40 2 -4 -10 -20 -27 -36 -18 -16 -26 -20 -18 -10 8
11 11 17 5 15 -5 -3 -37 -18 -70 -34 -114 -56 -288 -43 -389 29 -96 68 -157
178 -164 297 -4 62 -1 82 16 116 52 101 170 151 362 152 52 0 126 -6 164 -14z"/>
<path d="M2166 1780 c-9 -22 -16 -69 -16 -104 0 -171 97 -282 270 -310 39 -7
44 -10 -60 38 -123 56 -206 221 -181 358 5 29 8 54 6 56 -1 2 -10 -15 -19 -38z"/>
<path d="M2190 1416 c0 -2 8 -10 18 -17 15 -13 16 -12 3 4 -13 16 -21 21 -21
13z"/>
<path d="M3196 1660 c8 -51 56 -151 92 -191 64 -73 203 -119 302 -101 l45 8
-75 7 c-139 12 -274 103 -328 220 -46 100 -43 96 -36 57z"/>
<path d="M3789 1403 c-13 -16 -12 -17 4 -4 9 7 17 15 17 17 0 8 -8 3 -21 -13z"/>
<path d="M1955 1718 c19 -172 61 -306 142 -445 147 -254 398 -436 688 -499
109 -23 321 -23 430 0 349 76 636 323 764 656 45 116 86 350 61 350 -14 0 -30
-43 -41 -115 -24 -149 -97 -329 -184 -450 -101 -142 -284 -285 -448 -349 -224
-89 -510 -89 -734 0 -332 131 -574 437 -632 799 -11 73 -27 115 -42 115 -8 0
-9 -19 -4 -62z"/>
<path d="M2556 1241 c-15 -6 -8 -14 45 -48 88 -57 177 -91 289 -110 80 -14
110 -14 187 -5 112 14 235 58 321 114 63 41 64 42 39 51 -22 7 -37 2 -85 -28
-32 -20 -92 -48 -133 -63 -68 -25 -87 -27 -219 -27 -132 0 -151 2 -219 27 -41
15 -100 43 -132 63 -60 37 -63 38 -93 26z"/>
<path d="M2464 1143 c-4 -21 -11 -44 -17 -51 -15 -19 1 -27 20 -9 10 8 31 20
46 26 31 12 29 32 -3 24 -15 -4 -20 0 -20 15 0 37 -19 33 -26 -5z"/>
<path d="M3486 1148 l-26 -23 33 -39 33 -39 32 23 c36 27 32 49 -5 25 -31 -21
-42 -12 -18 15 23 26 11 39 -14 16 -12 -11 -21 -13 -25 -7 -4 5 3 15 14 21 21
11 27 30 11 30 -6 0 -21 -10 -35 -22z"/>
<path d="M3420 1105 c0 -3 5 -16 11 -27 10 -19 9 -20 -7 -13 -60 24 -66 17
-33 -39 27 -47 53 -51 29 -5 -13 23 -2 24 29 3 34 -24 43 -5 18 40 -19 35 -47
59 -47 41z"/>
<path d="M2536 1078 c-23 -32 -20 -55 9 -74 33 -21 72 -6 81 31 13 54 -59 88
-90 43z m62 -24 c3 -23 -21 -49 -38 -39 -11 7 -14 48 -3 59 13 13 38 1 41 -20z"/>
<path d="M2647 1017 c-14 -43 -14 -47 3 -62 27 -24 52 -15 72 25 21 43 22 50
5 50 -7 0 -19 -16 -26 -35 -7 -19 -16 -35 -21 -35 -18 0 -22 22 -10 51 9 21
10 33 3 40 -7 7 -15 -4 -26 -34z"/>
<path d="M3325 1050 c-7 -12 32 -90 45 -90 13 0 13 0 -10 54 -22 48 -25 52
-35 36z"/>
<path d="M2765 1008 c-17 -52 -22 -88 -13 -94 5 -3 12 3 15 15 7 28 21 27 33
-4 12 -33 34 -33 26 -1 -3 14 -2 28 4 31 12 7 13 42 3 48 -25 14 -64 16 -68 5z
m55 -28 c0 -5 -9 -10 -20 -10 -11 0 -20 5 -20 10 0 6 9 10 20 10 11 0 20 -4
20 -10z"/>
<path d="M3234 995 c8 -33 25 -75 29 -75 2 0 18 5 36 11 39 14 41 33 2 24 -27
-6 -30 -3 -41 29 -13 40 -36 50 -26 11z"/>
<path d="M3143 1000 c-51 -21 -30 -100 26 -100 33 0 54 20 45 44 -7 17 -44 23
-44 6 0 -5 5 -10 10 -10 6 0 10 -5 10 -11 0 -6 -10 -9 -22 -7 -35 5 -32 53 2
54 43 2 46 4 26 19 -22 17 -23 17 -53 5z"/>
<path d="M2913 976 c11 -9 17 -27 17 -55 0 -22 5 -41 10 -41 6 0 10 10 10 23
0 38 12 67 27 67 8 0 11 5 8 10 -3 6 -25 10 -48 10 -37 -1 -40 -2 -24 -14z"/>
<path d="M3019 963 c-17 -46 -22 -83 -11 -83 5 0 12 7 16 15 7 20 25 19 48 -2
24 -21 24 -3 1 54 -21 49 -39 55 -54 16z m31 -23 c0 -5 -5 -10 -11 -10 -5 0
-7 5 -4 10 3 6 8 10 11 10 2 0 4 -4 4 -10z"/>
</g>
</svg>
