<?xml version="1.0" standalone="no"?>
<!DOCTYPE svg PUBLIC "-//W3C//DTD SVG 20010904//EN"
 "http://www.w3.org/TR/2001/REC-SVG-20010904/DTD/svg10.dtd">
<svg version="1.0" xmlns="http://www.w3.org/2000/svg"
 width="1432.000000pt" height="1460.000000pt" viewBox="0 0 1432.000000 1460.000000"
 preserveAspectRatio="xMidYMid meet">

<g transform="translate(0.000000,1460.000000) scale(0.100000,-0.100000)"
fill="#000000" stroke="none">
<path d="M5400 13718 c-1179 -89 -2269 -587 -3100 -1418 -715 -713 -1187
-1624 -1361 -2624 -59 -337 -84 -832 -60 -1166 51 -700 226 -1327 536 -1927
551 -1064 1478 -1892 2595 -2318 958 -366 2022 -420 3025 -155 1369 362 2528
1324 3144 2610 635 1327 636 2902 3 4225 -259 539 -585 995 -1008 1405 -927
899 -2139 1386 -3429 1378 -126 0 -282 -5 -345 -10z m550 -978 c289 -17 512
-50 775 -116 851 -213 1628 -733 2164 -1448 417 -556 673 -1196 758 -1896 22
-181 25 -655 5 -835 -80 -736 -350 -1413 -791 -1985 -197 -256 -468 -527 -721
-721 -608 -467 -1328 -741 -2100 -800 -188 -14 -540 -7 -730 16 -1034 122
-1965 646 -2622 1475 -265 334 -497 764 -628 1160 -121 368 -181 684 -199
1063 -54 1121 372 2197 1180 2982 688 668 1552 1048 2509 1104 196 12 208 12
400 1z"/>
<path d="M10108 5468 c-167 -209 -226 -281 -332 -398 -155 -171 -386 -379
-626 -564 l-63 -48 1439 -1440 c791 -792 1467 -1459 1501 -1484 142 -103 302
-150 477 -141 125 6 197 25 306 79 108 54 247 187 305 291 108 196 125 454 43
652 -60 143 -59 142 -1571 1653 l-1444 1444 -35 -44z"/>
</g>
</svg>
